<?xml version="1.0" encoding="iso-8859-1"?>
<!-- Uploaded to: SVG Repo, www.svgrepo.com, Generator: SVG Repo Mixer Tools -->
<!DOCTYPE svg PUBLIC "-//W3C//DTD SVG 1.1//EN" "http://www.w3.org/Graphics/SVG/1.1/DTD/svg11.dtd">
<svg fill="#000000" version="1.1" id="Capa_1" xmlns="http://www.w3.org/2000/svg" xmlns:xlink="http://www.w3.org/1999/xlink" 
	 width="800px" height="800px" viewBox="0 0 417.938 417.938"
	 xml:space="preserve">
<g>
	<g>
		<circle cx="151.631" cy="344.928" r="9.186"/>
		<path d="M386.59,287.144c0-4.494-1.548-8.6-4.068-11.938c1.838-2.908,2.944-6.331,2.944-10.017V29.565
			c0-16.294-13.26-29.56-29.563-29.565H162.377c-16.289,0.005-29.549,13.271-29.56,29.565v28.221H62.035
			c-16.29,0.005-29.549,13.271-29.56,29.564v234.276c0,4.012,1.283,7.713,3.43,10.772c-2.8,3.438-4.559,7.759-4.559,12.524
			c0,4.594,1.627,8.788,4.256,12.164c-1.913,2.939-3.063,6.42-3.076,10.183l-0.057,21.113c0.005,16.295,13.271,29.555,29.565,29.555
			H255.55c16.293,0,29.563-13.265,29.563-29.565v-21.05c0-3.795-1.148-7.318-3.091-10.279c0.146-0.177,0.319-0.346,0.451-0.545
			c3.112,2.272,6.903,3.653,11.04,3.653h62.384c16.298,0,29.563-13.265,29.563-29.563v-21.051c0-3.796-1.148-7.317-3.091-10.278
			C384.978,295.889,386.59,291.72,386.59,287.144z M162.382,26.877c-1.478,0-2.688,1.21-2.688,2.693v38.08
			c0,0.307-0.052,0.59-0.092,0.887h31.781h33.593h30.578c10.378,0.005,18.814,8.443,18.814,18.813v235.621
			c0,4.451-3.612,8.063-8.063,8.063c-4.453,0-8.063-3.612-8.063-8.063V87.35c0-1.483-1.213-2.688-2.692-2.688h-22.51v306.398h22.515
			c1.475,0,2.688-1.208,2.688-2.688v-21.05c0-4.452,3.61-8.062,8.063-8.062c4.451,0,8.063,3.61,8.063,8.062v21.05
			c0,10.372-8.437,18.814-18.814,18.814h-30.578h-33.593H62.04c-10.371,0-18.809-8.432-18.814-18.809l0.058-21.077
			c0.013-4.446,3.62-8.041,8.063-8.041c0.008,0,0.018,0,0.023,0c4.454,0.011,8.058,3.632,8.039,8.083l-0.057,21.051
			c0,1.459,1.21,2.667,2.688,2.667h121.285V84.663H62.04c-1.478,0-2.688,1.21-2.688,2.693v234.276c0,4.451-3.606,8.062-8.063,8.062
			c-4.457,0-8.063-3.611-8.063-8.062V87.35c0.005-10.375,8.444-18.813,18.814-18.813h81.62c-0.031-0.297-0.091-0.58-0.091-0.887
			V29.57c0.005-10.375,8.443-18.814,18.813-18.814h193.52c10.378,0.005,18.814,8.446,18.814,18.814v235.619
			c0,4.451-3.612,8.063-8.063,8.063s-8.063-3.612-8.063-8.063V29.565c0-1.483-1.213-2.688-2.692-2.688H162.382z M275.497,344.929
			c0,5.071-4.116,9.186-9.191,9.186c-5.066,0-9.188-4.114-9.188-9.186c0-5.082,4.121-9.187,9.188-9.187
			C271.381,335.742,275.497,339.847,275.497,344.929z M42.103,344.929c0-5.082,4.113-9.187,9.187-9.187
			c5.074,0,9.187,4.104,9.187,9.187c0,5.071-4.112,9.186-9.187,9.186C46.216,354.114,42.103,350,42.103,344.929z M82.418,344.929
			c0-10.993,8.945-19.938,19.938-19.938c10.992,0,19.937,8.944,19.937,19.938c0,10.992-8.945,19.937-19.937,19.937
			C91.363,364.865,82.418,355.921,82.418,344.929z M131.695,344.929c0-10.993,8.945-19.938,19.937-19.938
			c10.993,0,19.938,8.944,19.938,19.938c0,10.992-8.945,19.937-19.938,19.937C140.64,364.865,131.695,355.921,131.695,344.929z
			 M374.717,330.588c0,10.372-8.437,18.812-18.814,18.812h-62.378c-4.453,0-8.063-3.61-8.063-8.063c0-4.451,3.61-8.062,8.063-8.062
			h62.378c1.475,0,2.688-1.207,2.688-2.688v-21.051c0-4.451,3.612-8.063,8.063-8.063s8.063,3.612,8.063,8.063V330.588z
			 M366.653,296.329c-5.076,0-9.188-4.115-9.188-9.186c0-5.082,4.111-9.188,9.188-9.188c5.075,0,9.186,4.105,9.186,9.188
			C375.839,292.214,371.729,296.329,366.653,296.329z"/>
		<circle cx="102.361" cy="344.928" r="9.186"/>
	</g>
</g>
</svg>